<svg xmlns="http://www.w3.org/2000/svg" version="1.0" preserveAspectRatio="xMidYMid meet" viewBox="243 707.34 1196.4 219.95">

<g transform="translate(0.000000,1720.000000) scale(0.100000,-0.100000)" fill="#000000" stroke="none">
<path d="M13515 10116 c-183 -36 -320 -125 -400 -262 -54 -91 -78 -189 -82 -334 -13 -392 127 -554 597 -690 197 -57 243 -82 278 -150 20 -39 23 -56 20 -130 -7 -162 -68 -221 -234 -228 -186 -8 -276 54 -333 231 -7 20 -17 37 -23 37 -12 0 -390 -111 -397 -117 -9 -7 40 -160 74 -229 74 -153 208 -251 403 -295 83 -18 249 -27 356 -19 216 18 349 71 461 184 122 123 158 231 159 471 0 111 -5 166 -18 213 -57 212 -161 301 -451 393 -296 93 -363 125 -406 195 -21 34 -24 51 -24 129 0 76 4 96 23 130 35 62 82 89 162 93 125 7 188 -42 242 -190 11 -32 21 -58 22 -58 13 1 398 119 402 123 9 9 -55 188 -89 247 -66 118 -185 207 -324 246 -79 22 -325 28 -418 10z"/>
<path d="M2430 9030 l0 -1070 230 0 230 0 2 577 3 578 134 -343 135 -342 156 0 156 0 135 342 134 343 3 -578 2 -577 230 0 230 0 0 1070 0 1070 -224 0 -223 0 -219 -535 c-120 -294 -221 -535 -224 -535 -3 0 -104 241 -224 535 l-219 535 -223 0 -224 0 0 -1070z"/>
<path d="M5581 10078 c-5 -13 -160 -491 -346 -1063 -186 -572 -339 -1043 -342 -1047 -2 -5 115 -8 260 -8 l265 0 48 195 49 195 294 -2 294 -3 50 -192 50 -193 258 0 c143 0 259 3 259 7 0 7 -298 928 -566 1751 l-125 382 -220 0 c-218 0 -220 0 -228 -22z m323 -951 c49 -193 91 -360 94 -369 4 -17 -10 -18 -188 -18 -178 0 -192 1 -188 18 3 9 45 176 94 369 49 194 91 353 94 353 3 0 45 -159 94 -353z"/>
<path d="M7310 9031 l0 -1071 245 0 245 0 0 420 0 420 54 0 54 0 168 -420 168 -420 268 0 c147 0 268 3 268 6 0 3 -79 177 -176 387 -97 210 -187 405 -200 433 l-23 52 62 30 c93 46 141 93 182 175 53 108 68 193 69 397 0 190 -10 264 -51 368 -33 82 -120 177 -201 220 -117 63 -139 65 -659 69 l-473 4 0 -1070z m781 668 c86 -29 119 -99 119 -255 0 -151 -25 -208 -105 -245 -33 -15 -66 -19 -182 -19 l-143 0 0 263 c0 145 3 267 8 272 10 11 261 -2 303 -16z"/>
<path d="M10061 10078 c-5 -13 -160 -491 -346 -1063 -186 -572 -339 -1043 -342 -1047 -2 -5 115 -8 260 -8 l265 0 48 195 49 195 294 -2 294 -3 50 -192 50 -193 258 0 c143 0 259 3 259 7 0 7 -298 928 -566 1751 l-125 382 -220 0 c-218 0 -220 0 -228 -22z m323 -951 c49 -193 91 -360 94 -369 4 -17 -10 -18 -188 -18 -178 0 -192 1 -188 18 3 9 45 176 94 369 49 194 91 353 94 353 3 0 45 -159 94 -353z"/>
<path d="M11790 9030 l0 -1070 240 0 240 0 0 1070 0 1070 -240 0 -240 0 0 -1070z"/>
</g>
</svg>